# xmcd
# Copyright (C) 1995-1998 Ti Kan
#
# Track frame offsets:
#       150
#       19500
#       35287
#       57112
#       74925
#       93712
#       114562
#       135900
#       156600
#       180472
#       200947
#       217950
#
# Disc length: 3259 seconds
#
# Revision: 2
# Processed by: cddbd v1.5.2PL0 Copyright (c) Steve Scherf et al.
# Submitted via: CD-Transfer v1.0
#
DISCID=b00cb90c
DTITLE=Rickenbacher - Share My Dreams
DYEAR=200
DGENRE=
TTITLE0=Share My Dreams
TTITLE1=Why
TTITLE2=Help Me Out
TTITLE3=You Never Loved Me
TTITLE4=Life Your Life
TTITLE5=Lovesong
TTITLE6=Road To Nowhere
TTITLE7=The Promiseland
TTITLE8=Alien
TTITLE9=Summer Comes
TTITLE10=Crazy
TTITLE11=It's Over Again
EXTD=
EXTT0=
EXTT1=
EXTT2=
EXTT3=
EXTT4=
EXTT5=
EXTT6=
EXTT7=
EXTT8=
EXTT9=
EXTT10=
EXTT11=
PLAYORDER=
